<?xml version="1.0" encoding="UTF-8"?>
<svg id="_图层_1" data-name="图层_1" xmlns="http://www.w3.org/2000/svg" version="1.1" viewBox="0 0 1490.18 1117.09">
  <!-- Generator: Adobe Illustrator 29.0.0, SVG Export Plug-In . SVG Version: 2.1.0 Build 186)  -->
  <defs>
    <style>
      .st0 {
        fill: none;
        stroke: #ff8600;
        stroke-miterlimit: 10;
      }

      .st1 {
        fill: #0081c0;
      }

      .st2 {
        fill: #0081fe;
      }

      .st3 {
        fill: #00d1ff;
      }

      .st4 {
        fill: #ffd837;
      }

      .st5 {
        fill: #007db9;
      }

      .st6 {
        fill: #ffce00;
      }

      .st7 {
        fill: #fa0;
      }

      .st8 {
        fill: #ff8600;
      }

      .st9 {
        fill: #00b9ff;
      }

      .st10 {
        fill: #006ff4;
      }
    </style>
  </defs>
  <path class="st5" d="M1263.01,298.66c-1.12-1.8-2.3-3.51-3.55-5.15-16.5-21.67-56.5-47.17-147.16-44.33-72.21,2.25-125.79,13.53-144.6,18.03,3.97,2.98,7.87,6.05,11.7,9.2,20.24,16.66,38.49,35.64,54.35,56.53,1.32-.48,2.14-.8,2.41-.96,4.75-2.75,21-11.08,58.25-10.25,36.65.83,58.93,15.6,63.37,21.63-.8,12.09-4.45,33.23-27.26,65.26-10.27,14.43-22.62,29.51-38.42,45.88-20.34,21.07-46.38,44.26-81.03,70.9-9.78,7.52-21.38,16.02-34.63,25.16-37.04,25.56-86.89,56.15-145.31,84.33-18.44,8.9-37.75,17.56-57.77,25.75-27.11,11.1-55.56,21.31-85.01,30.08l-44.93,11.38c-75.45,21.08-135.82,28.58-192.82,29.02-54.39.43-88.31-18.52-91.31-20.26-.05-.03-.09-.05-.12-.07-.07-.04-.1-.06-.1-.06,2.07-71.11,76.67-104.77,76.67-104.77,0,0,.39-.2,1.15-.58-4.69-22.36-7.15-45.54-7.15-69.29,0-3.59.06-7.16.17-10.72.14-4.43.36-8.84.67-13.22-32.94,25.48-70.2,55.17-85.62,70.58-30.33,30.34-136.66,145.34-76,203,51.91,49.34,150.68,52.08,295.45,19.47,24.43-5.5,50.17-12.01,77.22-19.47,44.24-12.2,86.89-26.89,127.38-43,40.2-15.99,78.26-33.37,113.66-51.1,0,0,239.47-124.6,317.28-220.41.06-.07.12-.13.17-.2,24.87-27.14,43.76-52.66,55.18-73.18,24.34-43.75,21.33-77.25,7.71-99.18Z"/>
  <path class="st7" d="M765.91,199.93c-49.34,0-96.19,10.63-138.4,29.72-25.49,11.53-49.28,26.14-70.9,43.37-25.87,20.6-48.63,44.94-67.46,72.2-37.47,54.21-59.41,119.98-59.41,190.87,0,185.66,150.51,336.17,336.17,336.17,94.78,0,180.39-39.22,241.48-102.32,24.3-25.08,44.72-53.93,60.3-85.59,18.56-37.69,30.26-79.37,33.47-123.4.6-8.21.91-16.5.91-24.86,0-185.66-150.5-336.16-336.16-336.16Z"/>
  <path class="st4" d="M1102.07,536.09c0,8.36-.31,16.65-.91,24.86-85.58,10.68-184.19-17.05-316.36-101.16-161.34-102.67-157.29-230.14-157.29-230.14,42.21-19.09,89.06-29.72,138.4-29.72,185.66,0,336.16,150.5,336.16,336.16Z"/>
  <path class="st8" d="M1007.39,769.94c-61.09,63.1-146.7,102.32-241.48,102.32-185.66,0-336.17-150.51-336.17-336.17,0-70.89,21.94-136.66,59.41-190.87,0,0-40.63,136.93,133.59,298.26,174.18,161.3,346.15,145.79,384.65,126.46Z"/>
  <path class="st6" d="M1101.16,560.95c-3.21,44.03-14.91,85.71-33.47,123.4-74.45,6.01-203.94-7.04-353.62-122.95-198-153.33-157.46-288.38-157.46-288.38,21.62-17.23,45.41-31.84,70.9-43.37,0,0-4.05,127.47,157.29,230.14,132.17,84.11,230.78,111.84,316.36,101.16Z"/>
  <path class="st7" d="M1067.69,684.35c-15.58,31.66-36,60.51-60.3,85.59-38.5,19.33-210.47,34.84-384.65-126.46-174.22-161.33-133.59-298.26-133.59-298.26,18.83-27.26,41.59-51.6,67.46-72.2,0,0-40.54,135.05,157.46,288.38,149.68,115.91,279.17,128.96,353.62,122.95Z"/>
  <path class="st7" d="M785.41,354.45s2.87,6.04,6.25,7.29,7.67,1.17,5.88-2.25-8.96-19.07-8.96-31.49-.67-26.25,34.25-26.83,71.03,28.11,80.86,35.44,51.83,55.67,44.17,85.5-39.42,26.42-50.92,23.75-17.08-5.83-17.75-5.08-4.64,5.36-3.92,6.08,35.56,24.69,78,24.69,62-25,62-50.11-2.47-64.78-61.03-123.33-127.22-65-148.22-55c-21,10-41.94,24.72-36.61,61.06s16,50.28,16,50.28Z"/>
  <path class="st3" d="M1194.88,432.68c-7.97,7.06-16.52,14.16-25.56,21.25-2.84,2.23-5.73,4.46-8.66,6.69-2.04,1.55-4.11,3.11-6.2,4.66-1.04.77-2.09,1.55-3.15,2.32-2.8,2.07-5.64,4.13-8.52,6.18-1,.72-2.01,1.44-3.03,2.16-1.53,1.1-3.09,2.19-4.65,3.28-.74.52-1.49,1.04-2.24,1.56-5.22,3.63-10.54,7.25-15.96,10.86-1.08.72-2.17,1.44-3.26,2.16-13.78,9.1-28.13,18.12-42.86,26.98-1.68,1.01-3.36,2.02-5.05,3.02-1.69,1.01-3.38,2.01-5.08,3.01-2.33,1.38-4.67,2.75-7.02,4.12-1.72,1-3.44,2-5.17,2.99-1.81,1.05-3.63,2.09-5.45,3.13-6.14,3.51-12.32,6.98-18.54,10.42-2.01,1.12-4.03,2.23-6.05,3.33-2.02,1.11-4.05,2.21-6.07,3.31-1.77.96-3.55,1.92-5.32,2.87-2.07,1.11-4.14,2.22-6.22,3.32-1.81.97-3.63,1.94-5.45,2.89-1.82.97-3.64,1.92-5.46,2.87s-3.65,1.9-5.47,2.85c-1.82.95-3.64,1.89-5.47,2.82-4.02,2.07-8.04,4.12-12.06,6.15-3.28,1.65-6.56,3.29-9.84,4.92-1.58.79-3.17,1.58-4.76,2.36-.23.12-.47.23-.7.34-4.63,2.28-9.25,4.54-13.86,6.76-.83.4-1.66.8-2.49,1.2-3.62,1.74-7.24,3.46-10.84,5.16-1.4.66-2.79,1.32-4.18,1.97-1.39.66-2.78,1.3-4.16,1.95-2.39,1.11-4.78,2.22-7.16,3.32-.22.1-.43.2-.64.29-1.79.83-3.57,1.64-5.34,2.44-.39.19-.77.36-1.15.53-2.37,1.08-4.73,2.15-7.09,3.21-2.74,1.23-5.46,2.45-8.17,3.65-3.13,1.39-6.24,2.76-9.34,4.12-3.66,1.6-7.29,3.17-10.9,4.71-1.71.73-3.41,1.46-5.11,2.18-2.66,1.13-5.29,2.24-7.91,3.33-2.24.93-4.46,1.86-6.68,2.77-1.87.77-3.72,1.53-5.57,2.28-.6.25-1.2.49-1.79.73-1.22.5-2.44.99-3.65,1.47-1.21.49-2.41.97-3.61,1.45-1.17.47-2.33.93-3.49,1.39-3.03,1.2-6.03,2.37-8.99,3.52-1.37.53-2.73,1.06-4.09,1.58-.94.36-1.87.71-2.79,1.06-.93.36-1.85.71-2.77,1.05-1.58.6-3.15,1.19-4.71,1.77-3.4,1.27-6.75,2.5-10.05,3.69-.68.25-1.35.49-2.02.73-2.21.8-4.39,1.57-6.54,2.32-1.22.43-2.42.85-3.62,1.27-3.24,1.12-6.42,2.2-9.54,3.24,20.02-8.19,39.33-16.85,57.77-25.75,58.42-28.18,108.27-58.77,145.31-84.33,13.25-9.14,24.85-17.64,34.63-25.16,34.65-26.64,60.69-49.83,81.03-70.9,15.8-16.37,28.15-31.45,38.42-45.88,22.81-32.03,26.46-53.17,27.26-65.26.03-.36.05-.72.07-1.07.67-11.89.78-42.78-46-59.17-46.78-16.39-112.78-8.61-129-7.05-.87.08-2.03.2-3.45.34-3.83-3.15-7.73-6.22-11.7-9.2,18.81-4.5,72.39-15.78,144.6-18.03,90.66-2.84,130.66,22.66,147.16,44.33,1.25,1.64,2.43,3.35,3.55,5.15,5.96,10.68,21.33,54.76-68.13,134.02Z"/>
  <path class="st9" d="M1255.3,397.84c-11.42,20.52-30.31,46.04-55.18,73.18-.05.07-.11.13-.17.2-.2.22-.57.63-1.14,1.22-11.77,12.14-108.31,101.07-510.46,218.28,29.45-8.77,57.9-18.98,85.01-30.08,3.12-1.04,6.3-2.12,9.54-3.24,1.2-.42,2.4-.84,3.62-1.27,2.15-.75,4.33-1.52,6.54-2.32.67-.24,1.34-.48,2.02-.73,3.3-1.19,6.65-2.42,10.05-3.69,1.56-.58,3.13-1.17,4.71-1.77.92-.34,1.84-.69,2.77-1.05.92-.35,1.85-.7,2.79-1.06,1.35-.52,2.72-1.04,4.09-1.58,2.96-1.15,5.96-2.32,8.99-3.52,1.16-.46,2.32-.92,3.49-1.39,1.2-.48,2.4-.96,3.61-1.45,1.21-.48,2.43-.97,3.65-1.47.59-.24,1.19-.48,1.79-.73,1.85-.75,3.7-1.51,5.57-2.28,2.21-.91,4.44-1.83,6.68-2.77,2.62-1.09,5.25-2.2,7.91-3.33,1.7-.72,3.4-1.44,5.11-2.18,3.61-1.54,7.24-3.11,10.9-4.71,3.1-1.35,6.21-2.72,9.34-4.12,2.71-1.2,5.43-2.42,8.17-3.65,2.36-1.06,4.72-2.13,7.09-3.21.38-.17.76-.34,1.15-.53,1.77-.8,3.55-1.61,5.34-2.44.21-.09.42-.19.64-.29,2.38-1.1,4.77-2.21,7.16-3.32,1.38-.65,2.77-1.29,4.16-1.95,1.39-.65,2.78-1.31,4.18-1.97,3.6-1.69,7.22-3.42,10.84-5.16.83-.4,1.66-.8,2.49-1.2,4.61-2.22,9.23-4.47,13.86-6.76.23-.11.47-.22.7-.34,1.58-.78,3.17-1.56,4.76-2.36,3.28-1.62,6.56-3.27,9.84-4.92,4.02-2.03,8.04-4.08,12.06-6.15,1.83-.93,3.65-1.87,5.47-2.82,1.82-.95,3.65-1.9,5.47-2.85s3.64-1.9,5.46-2.87c1.82-.95,3.64-1.92,5.45-2.89,2.08-1.1,4.15-2.21,6.22-3.32,1.77-.95,3.55-1.91,5.32-2.87,2.02-1.1,4.05-2.2,6.07-3.31,2.02-1.1,4.04-2.21,6.05-3.33,6.22-3.44,12.4-6.91,18.54-10.42,1.82-1.04,3.64-2.08,5.45-3.13,1.73-.99,3.45-1.99,5.17-2.99,2.35-1.37,4.69-2.74,7.02-4.12,1.7-1,3.39-2,5.08-3.01,1.69-1,3.37-2.01,5.05-3.02,14.73-8.86,29.08-17.88,42.86-26.98,1.09-.72,2.18-1.44,3.26-2.16,5.42-3.61,10.74-7.23,15.96-10.86.75-.52,1.5-1.04,2.24-1.56,1.56-1.09,3.12-2.18,4.65-3.28,1.02-.72,2.03-1.44,3.03-2.16,2.88-2.05,5.72-4.11,8.52-6.18,1.06-.77,2.11-1.55,3.15-2.32,2.09-1.55,4.16-3.11,6.2-4.66,2.93-2.23,5.82-4.46,8.66-6.69,9.04-7.09,17.59-14.19,25.56-21.25,89.46-79.26,74.09-123.34,68.13-134.02,13.62,21.93,16.63,55.43-7.71,99.18Z"/>
  <path class="st1" d="M436.89,605.38c-.76.38-1.15.58-1.15.58,0,0-74.6,33.66-76.67,104.77-14.2-9.4-22.88-21.54-22.94-37.05-.17-46.34,31-83.5,51.83-106.34,20.84-22.83,40.5-39.83,40.5-39.83l1.45-2.14c-.11,3.56-.17,7.13-.17,10.72,0,23.75,2.46,46.93,7.15,69.29Z"/>
  <path class="st10" d="M882.67,691.63c-35.4,17.73-73.46,35.11-113.66,51.1-40.49,16.11-83.14,30.8-127.38,43-27.05,7.46-52.79,13.97-77.22,19.47-144.77,32.61-243.54,29.87-295.45-19.47-60.66-57.66,45.67-172.66,76-203,15.42-15.41,52.68-45.1,85.62-70.58-.31,4.38-.53,8.79-.67,13.22l-1.45,2.14s-19.66,17-40.5,39.83c-20.83,22.84-52,60-51.83,106.34.06,15.51,8.74,27.65,22.94,37.05,0,0,.03.02.1.06.03.02.07.04.12.07,28.29,18.63,78.23,26.48,125.56,28.48,4.48.19,9.03.35,13.63.48,68.64,2.02,149.61-1.84,212.87-9.81,8.07-1.02,16.47-2.25,25.06-3.67,52.56-8.6,112.2-23.7,146.26-34.71Z"/>
  <path class="st5" d="M1157.85,342.29c-.02.35-.04.71-.07,1.07-4.44-6.03-26.72-20.8-63.37-21.63-37.25-.83-53.5,7.5-58.25,10.25-.27.16-1.09.48-2.41.96-15.86-20.89-34.11-39.87-54.35-56.53,1.42-.14,2.58-.26,3.45-.34,16.22-1.56,82.22-9.34,129,7.05,46.78,16.39,46.67,47.28,46,59.17Z"/>
  <path class="st2" d="M1199.95,471.22c-77.81,95.81-317.28,220.41-317.28,220.41-34.06,11.01-93.7,26.11-146.26,34.71-8.59,1.42-16.99,2.65-25.06,3.67-63.26,7.97-144.23,11.83-212.87,9.81-4.6-.13-9.15-.29-13.63-.48-47.33-2-97.27-9.85-125.56-28.48,3,1.74,36.92,20.69,91.31,20.26,57-.44,117.37-7.94,192.82-29.02l44.93-11.38c402.15-117.21,498.69-206.14,510.46-218.28.57-.59.94-1,1.14-1.22Z"/>
  <path class="st0" d="M1157.99,343.65c-.06-.09-.13-.19-.21-.29"/>
</svg>